<?xml version="1.0" standalone="no"?><!DOCTYPE svg PUBLIC "-//W3C//DTD SVG 1.1//EN"
    "http://www.w3.org/Graphics/SVG/1.1/DTD/svg11.dtd">
<svg t="1560620356146" class="icon" style="" viewBox="0 0 1024 1024" version="1.1"
     xmlns="http://www.w3.org/2000/svg" p-id="3533" xmlns:xlink="http://www.w3.org/1999/xlink"
     width="40" height="40">
    <defs>
        <style type="text/css"></style>
    </defs>
    <path
        d="M597.333333 725.333333v256h-85.333333v-256H384l170.666667-213.333333 170.666666 213.333333h-128z m85.333334 85.333334h128v-128h-34.133334L554.666667 405.333333 326.272 682.666667H277.333333a64 64 0 0 0 0 128H426.666667v85.333333H277.333333A149.333333 149.333333 0 0 1 128 746.666667V213.333333a128 128 0 0 1 128-128h597.333333a42.666667 42.666667 0 0 1 42.666667 42.666667v725.333333a42.666667 42.666667 0 0 1-42.666667 42.666667h-170.666666v-85.333333zM298.666667 213.333333v85.333334h85.333333V213.333333H298.666667z m0 128v85.333334h85.333333V341.333333H298.666667z"
        p-id="3534" fill="#565656"></path>
</svg>